<mxfile host="app.diagrams.net" modified="2023-12-22T12:51:43.641Z" agent="Mozilla/5.0 (X11; Linux x86_64; rv:109.0) Gecko/20100101 Firefox/117.0" etag="1P8DKDwLMymnjV4ixaRE" version="22.1.11" type="github">
  <diagram id="C5RBs43oDa-KdzZeNtuy" name="Page-1">
    <mxGraphModel dx="1012" dy="563" grid="1" gridSize="10" guides="1" tooltips="1" connect="1" arrows="1" fold="1" page="1" pageScale="1" pageWidth="827" pageHeight="1169" math="0" shadow="0">
      <root>
        <mxCell id="WIyWlLk6GJQsqaUBKTNV-0" />
        <mxCell id="WIyWlLk6GJQsqaUBKTNV-1" parent="WIyWlLk6GJQsqaUBKTNV-0" />
        <mxCell id="jtLpMjDh8135N6pmHkfv-2" value="" style="edgeStyle=orthogonalEdgeStyle;rounded=0;orthogonalLoop=1;jettySize=auto;html=1;" edge="1" parent="WIyWlLk6GJQsqaUBKTNV-1" source="jtLpMjDh8135N6pmHkfv-0" target="jtLpMjDh8135N6pmHkfv-1">
          <mxGeometry relative="1" as="geometry" />
        </mxCell>
        <mxCell id="jtLpMjDh8135N6pmHkfv-0" value="L0" style="shape=cylinder3;whiteSpace=wrap;html=1;boundedLbl=1;backgroundOutline=1;size=15;" vertex="1" parent="WIyWlLk6GJQsqaUBKTNV-1">
          <mxGeometry x="70" y="30" width="60" height="80" as="geometry" />
        </mxCell>
        <mxCell id="jtLpMjDh8135N6pmHkfv-4" value="" style="edgeStyle=orthogonalEdgeStyle;rounded=0;orthogonalLoop=1;jettySize=auto;html=1;" edge="1" parent="WIyWlLk6GJQsqaUBKTNV-1" source="jtLpMjDh8135N6pmHkfv-1" target="jtLpMjDh8135N6pmHkfv-3">
          <mxGeometry relative="1" as="geometry" />
        </mxCell>
        <mxCell id="jtLpMjDh8135N6pmHkfv-1" value="Read all into&lt;br&gt;RAM buffer" style="shape=step;perimeter=stepPerimeter;whiteSpace=wrap;html=1;fixedSize=1;" vertex="1" parent="WIyWlLk6GJQsqaUBKTNV-1">
          <mxGeometry x="190" y="30" width="120" height="80" as="geometry" />
        </mxCell>
        <mxCell id="jtLpMjDh8135N6pmHkfv-3" value="&lt;div&gt;Pre-fetch all&lt;br&gt;&lt;/div&gt;&lt;div&gt;packets&lt;br&gt;&lt;/div&gt;" style="shape=step;perimeter=stepPerimeter;whiteSpace=wrap;html=1;fixedSize=1;" vertex="1" parent="WIyWlLk6GJQsqaUBKTNV-1">
          <mxGeometry x="340" y="30" width="120" height="80" as="geometry" />
        </mxCell>
        <mxCell id="jtLpMjDh8135N6pmHkfv-7" value="&lt;div style=&quot;font-size: 8px;&quot; align=&quot;left&quot;&gt;&lt;ul&gt;&lt;li&gt;sensing start times of the packets&lt;br&gt;&lt;/li&gt;&lt;li&gt;offsets of the packets&lt;/li&gt;&lt;li&gt;missing/calibration lines compensation&lt;/li&gt;&lt;/ul&gt;&lt;/div&gt;" style="text;html=1;strokeColor=none;fillColor=none;align=left;verticalAlign=middle;whiteSpace=wrap;rounded=0;" vertex="1" parent="WIyWlLk6GJQsqaUBKTNV-1">
          <mxGeometry x="305" y="90" width="190" height="80" as="geometry" />
        </mxCell>
        <mxCell id="jtLpMjDh8135N6pmHkfv-14" value="" style="edgeStyle=orthogonalEdgeStyle;rounded=0;orthogonalLoop=1;jettySize=auto;html=1;" edge="1" parent="WIyWlLk6GJQsqaUBKTNV-1" source="jtLpMjDh8135N6pmHkfv-8" target="jtLpMjDh8135N6pmHkfv-13">
          <mxGeometry relative="1" as="geometry" />
        </mxCell>
        <mxCell id="jtLpMjDh8135N6pmHkfv-8" value="&lt;div&gt;Parse full&lt;/div&gt;&lt;div&gt;metadata and samples&lt;/div&gt;" style="shape=step;perimeter=stepPerimeter;whiteSpace=wrap;html=1;fixedSize=1;" vertex="1" parent="WIyWlLk6GJQsqaUBKTNV-1">
          <mxGeometry x="190" y="170" width="120" height="80" as="geometry" />
        </mxCell>
        <mxCell id="jtLpMjDh8135N6pmHkfv-11" value="" style="edgeStyle=orthogonalEdgeStyle;rounded=0;orthogonalLoop=1;jettySize=auto;html=1;" edge="1" parent="WIyWlLk6GJQsqaUBKTNV-1" source="jtLpMjDh8135N6pmHkfv-10" target="jtLpMjDh8135N6pmHkfv-8">
          <mxGeometry relative="1" as="geometry" />
        </mxCell>
        <mxCell id="jtLpMjDh8135N6pmHkfv-10" value="&lt;div&gt;Exclude ones&lt;/div&gt;&lt;div&gt;not needed for&lt;/div&gt;&lt;div&gt;padding&lt;br&gt;&lt;/div&gt;" style="shape=step;perimeter=stepPerimeter;whiteSpace=wrap;html=1;fixedSize=1;" vertex="1" parent="WIyWlLk6GJQsqaUBKTNV-1">
          <mxGeometry x="40" y="170" width="120" height="80" as="geometry" />
        </mxCell>
        <mxCell id="jtLpMjDh8135N6pmHkfv-12" style="edgeStyle=orthogonalEdgeStyle;rounded=0;orthogonalLoop=1;jettySize=auto;html=1;exitX=1;exitY=0.5;exitDx=0;exitDy=0;entryX=0;entryY=0.5;entryDx=0;entryDy=0;" edge="1" parent="WIyWlLk6GJQsqaUBKTNV-1" source="jtLpMjDh8135N6pmHkfv-3" target="jtLpMjDh8135N6pmHkfv-10">
          <mxGeometry relative="1" as="geometry">
            <Array as="points">
              <mxPoint x="500" y="70" />
              <mxPoint x="500" y="150" />
              <mxPoint x="20" y="150" />
              <mxPoint x="20" y="210" />
            </Array>
          </mxGeometry>
        </mxCell>
        <mxCell id="jtLpMjDh8135N6pmHkfv-16" style="edgeStyle=orthogonalEdgeStyle;rounded=0;orthogonalLoop=1;jettySize=auto;html=1;entryX=0;entryY=0.5;entryDx=0;entryDy=0;" edge="1" parent="WIyWlLk6GJQsqaUBKTNV-1" source="jtLpMjDh8135N6pmHkfv-13" target="jtLpMjDh8135N6pmHkfv-15">
          <mxGeometry relative="1" as="geometry">
            <Array as="points">
              <mxPoint x="500" y="210" />
              <mxPoint x="500" y="270" />
              <mxPoint x="20" y="270" />
              <mxPoint x="20" y="320" />
            </Array>
          </mxGeometry>
        </mxCell>
        <mxCell id="jtLpMjDh8135N6pmHkfv-13" value="measurements processing..." style="shape=parallelogram;perimeter=parallelogramPerimeter;whiteSpace=wrap;html=1;fixedSize=1;" vertex="1" parent="WIyWlLk6GJQsqaUBKTNV-1">
          <mxGeometry x="340" y="180" width="120" height="60" as="geometry" />
        </mxCell>
        <mxCell id="jtLpMjDh8135N6pmHkfv-18" value="" style="edgeStyle=orthogonalEdgeStyle;rounded=0;orthogonalLoop=1;jettySize=auto;html=1;" edge="1" parent="WIyWlLk6GJQsqaUBKTNV-1" source="jtLpMjDh8135N6pmHkfv-15" target="jtLpMjDh8135N6pmHkfv-17">
          <mxGeometry relative="1" as="geometry" />
        </mxCell>
        <mxCell id="jtLpMjDh8135N6pmHkfv-15" value="&lt;div&gt;Extract packets&amp;nbsp;&lt;/div&gt;&lt;div&gt;between&amp;nbsp;&lt;/div&gt;&lt;div&gt;&amp;nbsp;sensing start/stop&lt;/div&gt;" style="shape=step;perimeter=stepPerimeter;whiteSpace=wrap;html=1;fixedSize=1;" vertex="1" parent="WIyWlLk6GJQsqaUBKTNV-1">
          <mxGeometry x="40" y="280" width="120" height="80" as="geometry" />
        </mxCell>
        <mxCell id="jtLpMjDh8135N6pmHkfv-20" value="" style="edgeStyle=orthogonalEdgeStyle;rounded=0;orthogonalLoop=1;jettySize=auto;html=1;" edge="1" parent="WIyWlLk6GJQsqaUBKTNV-1" source="jtLpMjDh8135N6pmHkfv-17" target="jtLpMjDh8135N6pmHkfv-19">
          <mxGeometry relative="1" as="geometry" />
        </mxCell>
        <mxCell id="jtLpMjDh8135N6pmHkfv-17" value="Reassemble metadata" style="shape=step;perimeter=stepPerimeter;whiteSpace=wrap;html=1;fixedSize=1;" vertex="1" parent="WIyWlLk6GJQsqaUBKTNV-1">
          <mxGeometry x="190" y="280" width="120" height="80" as="geometry" />
        </mxCell>
        <mxCell id="jtLpMjDh8135N6pmHkfv-19" value="&lt;div&gt;Final results&lt;/div&gt;&lt;div&gt;format and L1 write&lt;/div&gt;" style="shape=trapezoid;perimeter=trapezoidPerimeter;whiteSpace=wrap;html=1;fixedSize=1;" vertex="1" parent="WIyWlLk6GJQsqaUBKTNV-1">
          <mxGeometry x="340" y="290" width="120" height="60" as="geometry" />
        </mxCell>
      </root>
    </mxGraphModel>
  </diagram>
</mxfile>
